<?xml version="1.0" standalone="no"?><!DOCTYPE svg PUBLIC "-//W3C//DTD SVG 1.1//EN" "http://www.w3.org/Graphics/SVG/1.1/DTD/svg11.dtd"><svg t="1538129003558" class="icon" style="" viewBox="0 0 1024 1024" version="1.1" xmlns="http://www.w3.org/2000/svg" p-id="37552" xmlns:xlink="http://www.w3.org/1999/xlink" width="64" height="64"><defs><style type="text/css"></style></defs><path d="M512 1024c282.773333 0 512-229.226667 512-512S794.773333 0 512 0 0 229.226667 0 512s229.226667 512 512 512z m0-213.333333c-164.949333 0-298.666667-133.717333-298.666667-298.666667s133.717333-298.666667 298.666667-298.666667 298.666667 133.717333 298.666667 298.666667-133.717333 298.666667-298.666667 298.666667z m0-405.333334a42.666667 42.666667 0 1 0 0-85.333333 42.666667 42.666667 0 0 0 0 85.333333z m-42.666667 85.525334v170.282666a42.666667 42.666667 0 1 0 85.333334 0V490.88a42.666667 42.666667 0 1 0-85.333334 0z" fill="#4ABDF8" p-id="37553"></path></svg>