<?xml version="1.0" standalone="no"?><!DOCTYPE svg PUBLIC "-//W3C//DTD SVG 1.1//EN" "http://www.w3.org/Graphics/SVG/1.1/DTD/svg11.dtd"><svg t="1580650660959" class="icon" viewBox="0 0 1024 1024" version="1.1" xmlns="http://www.w3.org/2000/svg" p-id="1994" xmlns:xlink="http://www.w3.org/1999/xlink" width="200" height="200"><defs><style type="text/css"></style></defs><path d="M512 78.769231C250.092308 78.769231 39.384615 271.753846 39.384615 512c0 76.8 21.661538 147.692308 59.076923 212.676923 3.938462 7.876923 5.907692 17.723077 3.938462 25.6L59.076923 886.153846c-7.876923 25.6 15.753846 47.261538 41.353846 39.384616l137.846154-47.261539c9.846154-3.938462 19.692308-1.969231 27.569231 3.938462 72.861538 41.353846 157.538462 64.984615 248.123077 64.984615 261.907692 0 472.615385-192.984615 472.615384-433.230769C982.646154 271.753846 771.938462 78.769231 512 78.769231z m226.461538 336.738461l-240.246153 236.307693c-9.846154 9.846154-19.692308 13.784615-33.476923 13.784615-11.815385 0-23.630769-3.938462-33.476924-13.784615L315.076923 537.6c-9.846154-9.846154-9.846154-23.630769 0-31.507692l33.476923-31.507693c9.846154-9.846154 23.630769-9.846154 33.476923 0l82.707693 82.707693 206.76923-204.8c9.846154-9.846154 23.630769-9.846154 33.476923 0l33.476923 31.507692c7.876923 7.876923 7.876923 23.630769 0 31.507692z" p-id="1995"></path></svg>