<?xml version="1.0" standalone="no"?><!DOCTYPE svg PUBLIC "-//W3C//DTD SVG 1.1//EN" "http://www.w3.org/Graphics/SVG/1.1/DTD/svg11.dtd"><svg t="1538135250295" class="icon" style="" viewBox="0 0 1024 1024" version="1.1" xmlns="http://www.w3.org/2000/svg" p-id="5237" xmlns:xlink="http://www.w3.org/1999/xlink" width="64" height="64"><defs><style type="text/css"></style></defs><path d="M510.58176 513.41824m-510.58176 0a510.58176 510.58176 0 1 0 1021.16352 0 510.58176 510.58176 0 1 0-1021.16352 0Z" fill="#FABDF2" p-id="5238"></path><path d="M283.14112 401.90976l63.4368-43.99104 120.89344 73.84576 245.1968-249.24672 58.73152 58.91584-244.1216 256.73728 81.64864 108.62592-67.328 89.18528-288.91136-264.2176z" fill="#F58FE8" p-id="5239"></path><path d="M564.56192 517.08416l69.56544 69.62176c19.20512 19.1488 19.20512 50.30912 0 69.56544L477.70112 812.6976c-19.2 19.1488-50.3552 19.1488-69.56544 0l-243.56864-243.57376a49.25952 49.25952 0 0 1 0-69.61664L233.94816 430.08l34.82624-34.78016 52.1728-52.1728c19.2-19.20512 50.36032-19.20512 69.56544 0l69.6064 69.56544 222.73536-222.73536c19.21024-19.20512 50.36544-19.20512 69.57056 0l34.7904 34.78016c19.2512 19.2512 19.2512 50.4064 0 69.56544l-222.65344 222.7712z m-348.0064 0a24.704 24.704 0 0 0 0 34.8416l17.38752 17.38752 34.82624-34.78528 34.78016 34.78528-34.78016 34.78016 34.78016 34.78528 52.1728-52.1728 34.78528 34.78016-52.1728 52.1728 34.78528 34.78016 34.83136-34.77504 34.78016 34.77504-34.78016 34.78528 17.38752 17.39264a24.55552 24.55552 0 0 0 34.78016 0l52.17792-52.17792-243.56864-243.56352-52.1728 52.20864z m527.26784-266.20928l-17.4336-17.38752a12.22656 12.22656 0 0 0-17.38752 0l-248.82688 248.7808-29.99296-29.952-22.17984-22.22592-34.83136-34.78016a24.6272 24.6272 0 0 0-34.77504 0L303.616 430.09024l243.57376 243.57888 34.78528-34.78528a24.5504 24.5504 0 0 0 0-34.78528l-34.78528-34.78016-22.2208-22.22592-29.952-30.0032 248.82176-248.81664a12.33408 12.33408 0 0 0-0.01024-17.39776z" fill="#9D59B8" p-id="5240"></path></svg>