<?xml version="1.0" standalone="no"?><!DOCTYPE svg PUBLIC "-//W3C//DTD SVG 1.1//EN" "http://www.w3.org/Graphics/SVG/1.1/DTD/svg11.dtd"><svg t="1562646074664" class="icon" viewBox="0 0 1024 1024" version="1.1" xmlns="http://www.w3.org/2000/svg" p-id="9595" xmlns:xlink="http://www.w3.org/1999/xlink" width="200" height="200"><defs><style type="text/css"></style></defs><path d="M226.548703 714.264779A402.741114 402.741114 0 0 1 85.333333 409.649148 418.526518 418.526518 0 0 1 511.965869 0.081913a418.526518 418.526518 0 0 1 426.632536 409.567235 396.768259 396.768259 0 0 1-110.924459 275.177986l-326.800523 328.08042z" fill="#6DC37D" p-id="9596"></path><path d="M634.83604 132.764632a304.615631 304.615631 0 0 1 97.272218 65.274778 305.468896 305.468896 0 0 1 89.1662 215.876063 298.642775 298.642775 0 0 1-23.891422 118.603845 303.335733 303.335733 0 0 1-162.546996 162.546997 306.322161 306.322161 0 0 1-237.20769 0A298.642775 298.642775 0 0 1 298.649601 629.791537a304.615631 304.615631 0 0 1-65.274778-97.272219 306.322161 306.322161 0 0 1 0-237.20769 304.615631 304.615631 0 0 1 282.857372-186.438418 298.642775 298.642775 0 0 1 118.603845 23.891422z m-153.161081 412.980295l213.316268-213.316268-27.304482-27.304482-186.011786 188.144948-107.084766-107.084766-26.451217 26.877849z" fill="#FFFFFF" p-id="9597"></path></svg>