<?xml version="1.0" standalone="no"?><!DOCTYPE svg PUBLIC "-//W3C//DTD SVG 1.1//EN" "http://www.w3.org/Graphics/SVG/1.1/DTD/svg11.dtd"><svg t="1575899447701" class="icon" viewBox="0 0 1024 1024" version="1.1" xmlns="http://www.w3.org/2000/svg" p-id="968" xmlns:xlink="http://www.w3.org/1999/xlink" width="200" height="200"><defs><style type="text/css"></style></defs><path d="M700.54 127.68c-0.1-19.06-8.4-37.26-22.78-49.96-12.28-10.82-28-16.76-44.26-16.76h-0.32l-9.72 0.04L140.6 63.36c-36.98 0.18-66.9 30.4-66.72 67.36l1.4 289.34c0.18 36.86 30.22 66.72 67.04 66.72h0.34l30.06-0.14 0.6 122.62v0.06a12 12 0 0 0 0.2 1.9c0.06 0.3 0.18 0.56 0.26 0.86 0.1 0.32 0.18 0.66 0.32 1 0.14 0.32 0.34 0.64 0.5 0.94 0.14 0.26 0.26 0.52 0.42 0.78 0.38 0.54 0.8 1.04 1.26 1.5v0.02l0.3 0.24c0.38 0.36 0.78 0.7 1.22 0.98 0.26 0.18 0.52 0.28 0.8 0.44 0.3 0.16 0.6 0.34 0.92 0.48 0.32 0.12 0.68 0.2 1.02 0.3 0.28 0.1 0.54 0.2 0.84 0.26 0.62 0.12 1.28 0.18 1.92 0.18l0.02 0.02h0.04c0.18 0 0.34-0.06 0.52-0.06 0.48-0.02 0.96-0.06 1.42-0.16 0.32-0.06 0.6-0.18 0.9-0.26 0.34-0.1 0.66-0.18 0.98-0.3 0.34-0.16 0.64-0.34 0.96-0.52 0.26-0.14 0.52-0.26 0.76-0.42 0.56-0.36 1.06-0.78 1.52-1.26l129.1-130.32 315.72-1.54c17.84-0.08 34.62-7.16 47.24-19.92 12.64-12.76 19.54-29.6 19.46-47.44l-1.4-289.34zM668.28 450.4c-8.88 8.96-20.64 13.92-33.14 13.98l-319.86 1.56c-0.44 0-0.84 0.08-1.26 0.12-0.24 0.04-0.46 0.04-0.68 0.08-0.4 0.08-0.78 0.22-1.16 0.34-0.24 0.08-0.48 0.14-0.72 0.24-0.38 0.16-0.72 0.36-1.06 0.56-0.22 0.12-0.46 0.22-0.66 0.36-0.54 0.38-1.06 0.8-1.52 1.26L193.2 585.02l-0.52-108.48a9.996 9.996 0 0 0-2.96-7.06c-1.8-1.8-4.28-2.9-7.04-2.9h-0.06l-40.06 0.2h-0.24c-25.84 0-46.92-20.96-47.04-46.82l-1.4-289.34c-0.14-25.94 20.86-47.14 46.8-47.26l482.86-2.36 9.72-0.04h0.24c11.4 0 22.42 4.18 31.02 11.76 10.12 8.92 15.96 21.7 16.02 35.06l1.4 289.32c0.06 12.52-4.78 24.32-13.66 33.3z" fill="#23130D" p-id="969"></path><path d="M680.54 127.78c-0.06-13.36-5.9-26.14-16.02-35.06-8.6-7.58-19.62-11.76-31.02-11.76h-0.24l-9.72 0.04h-0.7l-24.24 0.12-15.18 0.08-14.58 0.06-7.38 0.04-18.96 0.1-401.82 1.96c-25.94 0.12-46.94 21.32-46.8 47.26l1.4 289.34c0.12 25.86 21.2 46.82 47.04 46.82h0.24l40.06-0.2h0.06c2.76 0 5.24 1.1 7.04 2.9 1.82 1.8 2.94 4.3 2.96 7.06l0.52 108.48 115.02-116.12c0.46-0.46 0.98-0.88 1.52-1.26 0.2-0.14 0.44-0.24 0.66-0.36 0.34-0.2 0.68-0.4 1.06-0.56 0.24-0.1 0.48-0.16 0.72-0.24 0.38-0.12 0.76-0.26 1.16-0.34 0.22-0.04 0.44-0.04 0.68-0.08 0.42-0.04 0.82-0.12 1.26-0.12l227.22-1.1 18.96-0.1 7.38-0.04 14.58-0.06 15.18-0.08 24.24-0.12 12.3-0.06c12.5-0.06 24.26-5.02 33.14-13.98 8.88-8.98 13.72-20.78 13.66-33.3l-1.4-289.32z m-229.86 280h-0.06c-5.5 0-9.96-4.44-10-9.96l-0.42-87.16-99.58 0.5 0.42 87.16a9.974 9.974 0 0 1-9.94 10.04h-0.06c-5.5 0-9.96-4.44-10-9.94l-0.92-188.64c-0.18-38.48 30.98-69.94 69.46-70.14 18.72-0.14 36.2 7.08 49.44 20.2 13.22 13.1 20.56 30.56 20.68 49.16v0.1l0.46 91.48 0.46 97.16a9.974 9.974 0 0 1-9.94 10.04z" fill="#3594BF" p-id="970"></path><path d="M948.72 603.94c-0.18-36.86-30.22-66.72-67.04-66.72h-0.32l-30.08 0.14-0.6-122.62c0-0.66-0.08-1.3-0.2-1.96-0.06-0.28-0.18-0.56-0.26-0.84-0.1-0.34-0.18-0.68-0.32-1.02s-0.34-0.64-0.52-0.94c-0.14-0.26-0.24-0.52-0.4-0.78-0.38-0.54-0.8-1.04-1.26-1.5v-0.02c-0.08-0.08-0.18-0.12-0.24-0.2-0.4-0.36-0.82-0.72-1.28-1.02-0.24-0.16-0.5-0.28-0.76-0.42-0.32-0.16-0.62-0.36-0.96-0.5-0.32-0.12-0.64-0.2-0.94-0.28-0.32-0.1-0.62-0.22-0.94-0.28-0.44-0.08-0.9-0.1-1.36-0.14-0.18 0-0.36-0.06-0.56-0.06h-0.06c-0.06 0-0.1 0.02-0.18 0.02-0.58 0.02-1.18 0.08-1.76 0.2-0.32 0.06-0.6 0.18-0.9 0.26-0.32 0.1-0.66 0.18-0.98 0.32-0.32 0.14-0.64 0.32-0.96 0.5-0.24 0.14-0.5 0.26-0.74 0.42-0.54 0.36-1.02 0.76-1.48 1.2-0.02 0.02-0.04 0.04-0.04 0.06l-129.08 130.32-315.72 1.54c-36.96 0.18-66.9 30.4-66.72 67.36l1.4 289.34c0.1 19.04 8.4 37.24 22.8 49.96a66.886 66.886 0 0 0 44.26 16.76h0.32l9.72-0.04 482.86-2.36c36.96-0.18 66.88-30.4 66.7-67.36l-1.4-289.34z m-65.4 336.7l-482.86 2.36-9.72 0.04h-0.22c-11.4 0-22.42-4.18-31.04-11.76-10.12-8.94-15.94-21.7-16.02-35.06l-1.4-289.34c-0.12-25.94 20.88-47.14 46.82-47.26l319.86-1.56c0.44 0 0.86-0.08 1.28-0.14 0.2-0.02 0.42-0.02 0.62-0.06 0.44-0.08 0.86-0.24 1.28-0.38 0.2-0.06 0.42-0.1 0.6-0.2 0.44-0.18 0.84-0.4 1.24-0.64 0.16-0.1 0.34-0.18 0.5-0.28 0.56-0.38 1.08-0.8 1.54-1.28l115-116.1 0.52 108.48c0.02 2.76 1.14 5.26 2.96 7.06 1.8 1.8 4.28 2.9 7.04 2.9h0.06l40.08-0.2h0.22c25.84 0 46.92 20.96 47.04 46.82l1.4 289.34c0.14 25.94-20.86 47.14-46.8 47.26z" fill="#23130D" p-id="971"></path><path d="M928.72 604.04c-0.12-25.86-21.2-46.82-47.04-46.82h-0.22l-40.08 0.2h-0.06c-2.76 0-5.24-1.1-7.04-2.9-1.82-1.8-2.94-4.3-2.96-7.06l-0.52-108.48-115 116.1c-0.46 0.48-0.98 0.9-1.54 1.28-0.16 0.1-0.34 0.18-0.5 0.28-0.4 0.24-0.8 0.46-1.24 0.64-0.18 0.1-0.4 0.14-0.6 0.2-0.42 0.14-0.84 0.3-1.28 0.38-0.2 0.04-0.42 0.04-0.62 0.06-0.42 0.06-0.84 0.14-1.28 0.14l-204.94 1-24.24 0.12-15.18 0.08-14.58 0.06-7.38 0.04-18.96 0.1-34.58 0.16c-25.94 0.12-46.94 21.32-46.82 47.26l1.4 289.34c0.08 13.36 5.9 26.12 16.02 35.06 8.62 7.58 19.64 11.76 31.04 11.76h0.22l9.72-0.04 23-0.12 18.96-0.08 7.38-0.04 14.58-0.08 15.18-0.06 24.24-0.12 379.52-1.86c25.94-0.12 46.94-21.32 46.8-47.26l-1.4-289.34zM656.4 875.32a69.19 69.19 0 0 1-23.2 4.1h-0.36c-18.5 0-35.94-7.16-49.1-20.2-13.24-13.12-20.58-30.6-20.68-49.26l-0.62-128.76c0-0.02-0.02-0.04-0.02-0.08-0.18-38.48 30.98-69.94 69.46-70.12h0.36c18.5 0 35.92 7.16 49.08 20.2 13.26 13.12 20.6 30.6 20.7 49.24v0.02l0.62 128.82c0.04 6.96-0.96 13.82-2.94 20.38a10.02 10.02 0 0 1-9.58 7.1c-0.96 0-1.94-0.14-2.9-0.42a9.988 9.988 0 0 1-6.66-12.48c1.4-4.66 2.1-9.52 2.08-14.48l-0.62-128.82v-0.02c-0.08-13.3-5.32-25.78-14.76-35.14-9.46-9.36-22.02-14.38-35.28-14.4-27.44 0.14-49.66 22.54-49.56 49.98 0 0.02 0.02 0.04 0.02 0.06l0.62 128.82c0.06 13.32 5.3 25.8 14.76 35.16 9.38 9.28 21.82 14.4 35.02 14.4h0.26c5.68-0.04 11.24-1 16.52-2.92a10.02 10.02 0 0 1 12.8 6.02c1.86 5.2-0.82 10.94-6.02 12.8z m68.34 23.5a9.98 9.98 0 0 1-7.1 2.96c-2.54 0-5.08-0.96-7.04-2.9l-84.8-83.98a9.988 9.988 0 0 1-0.06-14.14 10.008 10.008 0 0 1 14.14-0.08l84.8 84a9.988 9.988 0 0 1 0.06 14.14z" fill="#F9C139" p-id="972"></path><path d="M460.16 300.58l-0.46-91.48v-0.1c-0.12-18.6-7.46-36.06-20.68-49.16-13.24-13.12-30.72-20.34-49.44-20.2-38.48 0.2-69.64 31.66-69.46 70.14l0.92 188.64a10.004 10.004 0 0 0 10 9.94h0.06a9.974 9.974 0 0 0 9.94-10.04l-0.42-87.16 99.58-0.5 0.42 87.16a10.008 10.008 0 0 0 10 9.96h0.06a9.974 9.974 0 0 0 9.94-10.04l-0.46-97.16z m-119.64-9.42l-0.4-81.48c-0.12-27.46 22.1-49.9 49.56-50.04 13.38-0.06 25.82 5.06 35.28 14.42 9.44 9.36 14.68 21.82 14.74 35.12v0.08l0.4 81.4-99.58 0.5z" fill="#FFFFFF" p-id="973"></path><path d="M440.1 290.66l-99.58 0.5-0.4-81.48c-0.12-27.46 22.1-49.9 49.56-50.04 13.38-0.06 25.82 5.06 35.28 14.42 9.44 9.36 14.68 21.82 14.74 35.12v0.08l0.4 81.4z" fill="#3594BF" p-id="974"></path><path d="M633.5 92.96a34.92 34.92 0 0 1 23.086 8.762c7.552 6.658 11.91 16.174 11.954 26.116l1.4 289.32c0.044 9.304-3.576 18.112-10.184 24.796-6.62 6.68-15.382 10.382-24.676 10.428l-319.802 1.56c-1.066 0-1.922 0.11-2.382 0.17l-0.018 0.004-0.416 0.04-0.1 0.016c-0.394 0.04-0.782 0.092-1.17 0.162l-0.104 0.018-0.104 0.02c-1.012 0.202-1.808 0.464-2.284 0.62l-0.138 0.044-0.092 0.028-0.092 0.03 0.05-0.016a16.276 16.276 0 0 0-1.63 0.582 18.996 18.996 0 0 0-2.168 1.09 14.54 14.54 0 0 0-1.8 1.076 23.78 23.78 0 0 0-3.14 2.628l-94.634 95.538-0.382-79.54c-0.042-5.882-2.358-11.388-6.474-15.458a21.804 21.804 0 0 0-15.524-6.414h-0.12l-40 0.2h-0.24c-19.232 0-34.95-15.646-35.04-34.878l-1.4-289.346c-0.05-9.338 3.554-18.146 10.146-24.804 6.594-6.658 15.37-10.348 24.712-10.392l482.85-2.36 9.67-0.04h0.246m-302.46 327.4H331.144a21.84 21.84 0 0 0 15.548-6.522 21.804 21.804 0 0 0 6.35-15.576l-0.362-75.162 75.58-0.38 0.362 75.186c0.088 12.06 9.956 21.874 22 21.874H450.726a21.834 21.834 0 0 0 15.546-6.522 21.804 21.804 0 0 0 6.35-15.574l-0.46-97.164-0.46-91.42V208.924c-0.14-21.802-8.746-42.26-24.234-57.606-15.408-15.27-35.776-23.678-57.352-23.678l-0.596 0.002c-45.094 0.234-81.608 37.108-81.398 82.198l0.92 188.668c0.086 12.05 9.956 21.852 21.998 21.852m302.46-339.4h-0.24l-9.72 0.04-482.86 2.36c-25.94 0.12-46.94 21.32-46.8 47.26l1.4 289.34c0.12 25.86 21.2 46.82 47.04 46.82h0.24l40.06-0.2h0.06c2.76 0 5.24 1.1 7.04 2.9 1.82 1.8 2.94 4.3 2.96 7.06l0.52 108.48 115.02-116.12c0.46-0.46 0.98-0.88 1.52-1.26 0.2-0.14 0.44-0.24 0.66-0.36 0.34-0.2 0.68-0.4 1.06-0.56 0.24-0.1 0.48-0.16 0.72-0.24 0.38-0.12 0.76-0.26 1.16-0.34 0.22-0.04 0.44-0.04 0.68-0.08 0.42-0.04 0.82-0.12 1.26-0.12l319.86-1.56c12.5-0.06 24.26-5.02 33.14-13.98 8.88-8.98 13.72-20.78 13.66-33.3l-1.4-289.32c-0.06-13.36-5.9-26.14-16.02-35.06-8.6-7.58-19.62-11.76-31.02-11.76z m-302.46 327.4c-5.5 0-9.96-4.44-10-9.94l-0.92-188.64c-0.18-38.48 30.98-69.94 69.46-70.14l0.534-0.002c18.52 0 35.792 7.206 48.906 20.202 13.22 13.1 20.56 30.56 20.68 49.16v0.1l0.46 91.48 0.46 97.16a9.974 9.974 0 0 1-9.94 10.04h-0.06c-5.5 0-9.96-4.44-10-9.96l-0.42-87.16-99.58 0.5 0.42 87.16a9.974 9.974 0 0 1-9.94 10.04h-0.06zM818.94 468.006l0.382 79.54c0.042 5.882 2.358 11.388 6.474 15.458a21.806 21.806 0 0 0 15.526 6.414h0.12l40.02-0.2h0.22c19.232 0 34.95 15.646 35.04 34.878l1.4 289.346c0.05 9.338-3.552 18.146-10.146 24.804s-15.368 10.348-24.712 10.392l-482.85 2.36-9.67 0.04h-0.22a35 35 0 0 1-23.096-8.754c-7.544-6.664-11.906-16.192-11.964-26.124l-1.4-289.338c-0.044-9.342 3.566-18.152 10.162-24.812 6.596-6.658 15.374-10.35 24.716-10.392l319.802-1.56c1.104 0 2.028-0.12 2.61-0.206 0.372-0.03 0.914-0.088 1.538-0.208a18.26 18.26 0 0 0 2.566-0.694c0.542-0.154 1.236-0.38 2.016-0.738a20.7 20.7 0 0 0 2.296-1.186 16.12 16.12 0 0 0 0.854-0.494l0.192-0.12 0.186-0.126a21.586 21.586 0 0 0 3.378-2.816l94.56-95.464M550.452 683.598l0.61 126.426c0.118 21.852 8.724 42.35 24.234 57.72 15.408 15.268 35.846 23.676 57.546 23.676h0.42a81.034 81.034 0 0 0 27.182-4.8 21.772 21.772 0 0 0 11.366-9.268l30.352 30.058a21.88 21.88 0 0 0 15.482 6.37c5.918 0 11.468-2.316 15.606-6.496a21.834 21.834 0 0 0 6.396-15.584 21.838 21.838 0 0 0-6.518-15.544l-31.134-30.84a22.036 22.036 0 0 0 9.198-12.186 81.056 81.056 0 0 0 3.452-23.906l-0.62-128.846c-0.118-21.85-8.732-42.342-24.254-57.7-15.408-15.268-35.838-23.676-57.526-23.676h-0.416c-21.816 0.102-42.306 8.716-57.696 24.252s-23.808 36.108-23.706 57.868l0.012 2.432 0.014 0.044m81.51-40.598c10.212 0.016 19.75 3.898 26.848 10.922a37.668 37.668 0 0 1 11.21 26.696l0.62 128.81c0.006 1.542-0.078 3.072-0.254 4.58l-22.064-21.856a21.848 21.848 0 0 0-15.468-6.356c-5.924 0-11.48 2.316-15.622 6.502a21.824 21.824 0 0 0-6.396 15.6 21.906 21.906 0 0 0 6.518 15.53l23.39 23.164a37.866 37.866 0 0 1-7.646 0.828h-0.26a37.568 37.568 0 0 1-26.58-10.93 37.526 37.526 0 0 1-11.2-26.688l-0.62-128.762-0.004-1.334c0.58-20.248 17.196-36.602 37.528-36.706M830.8 438.98l-115 116.1c-0.46 0.48-0.98 0.9-1.54 1.28-0.16 0.1-0.34 0.18-0.5 0.28-0.4 0.24-0.8 0.46-1.24 0.64-0.18 0.1-0.4 0.14-0.6 0.2-0.42 0.14-0.84 0.3-1.28 0.38-0.2 0.04-0.42 0.04-0.62 0.06-0.42 0.06-0.84 0.14-1.28 0.14l-319.86 1.56c-25.94 0.12-46.94 21.32-46.82 47.26l1.4 289.34c0.08 13.36 5.9 26.12 16.02 35.06 8.62 7.58 19.64 11.76 31.04 11.76h0.22l9.72-0.04 482.86-2.36c25.94-0.12 46.94-21.32 46.8-47.26l-1.4-289.34c-0.12-25.86-21.2-46.82-47.04-46.82h-0.22l-40.08 0.2h-0.06c-2.76 0-5.24-1.1-7.04-2.9-1.82-1.8-2.94-4.3-2.96-7.06l-0.52-108.48z m-197.96 440.44c-18.5 0-35.94-7.16-49.1-20.2-13.24-13.12-20.58-30.6-20.68-49.26l-0.62-128.76c0-0.02-0.02-0.04-0.02-0.08-0.18-38.48 30.98-69.94 69.46-70.12h0.36c18.5 0 35.92 7.16 49.08 20.2 13.26 13.12 20.6 30.6 20.7 49.24v0.02l0.62 128.82c0.04 6.96-0.96 13.82-2.94 20.38a10.02 10.02 0 0 1-9.58 7.1c-0.96 0-1.94-0.14-2.9-0.42a9.988 9.988 0 0 1-6.66-12.48c1.4-4.66 2.1-9.52 2.08-14.48l-0.62-128.82v-0.02c-0.08-13.3-5.32-25.78-14.76-35.14-9.46-9.36-22.02-14.38-35.28-14.4-27.44 0.14-49.66 22.54-49.56 49.98 0 0.02 0.02 0.04 0.02 0.06l0.62 128.82c0.06 13.32 5.3 25.8 14.76 35.16 9.38 9.28 21.82 14.4 35.02 14.4h0.26c5.68-0.04 11.24-1 16.52-2.92a10.02 10.02 0 0 1 12.8 6.02c1.86 5.2-0.82 10.94-6.02 12.8a69.19 69.19 0 0 1-23.2 4.1h-0.36z m84.8 22.36c-2.54 0-5.08-0.96-7.04-2.9l-84.8-83.98a9.988 9.988 0 0 1-0.06-14.14 9.974 9.974 0 0 1 7.114-2.966c2.54 0 5.082 0.96 7.026 2.886l84.8 84a9.988 9.988 0 0 1 0.06 14.14 9.98 9.98 0 0 1-7.1 2.96z" opacity=".2" p-id="975"></path><path d="M389.912 171.64c10.02 0 19.47 3.89 26.598 10.942 7.17 7.11 11.144 16.574 11.19 26.598v0.14l0.342 69.402-75.58 0.38-0.342-69.472c-0.092-20.84 16.786-37.882 37.616-37.988l0.176-0.002m0-12h-0.232c-27.46 0.14-49.68 22.58-49.56 50.04l0.4 81.48 99.58-0.5-0.4-81.4v-0.08c-0.06-13.3-5.3-25.76-14.74-35.12-9.406-9.306-21.756-14.42-35.048-14.42z" opacity=".2" p-id="976"></path><path d="M702.64 809.28c0.04 6.96-0.96 13.82-2.94 20.38a10.02 10.02 0 0 1-9.58 7.1c-0.96 0-1.94-0.14-2.9-0.42a9.988 9.988 0 0 1-6.66-12.48c1.4-4.66 2.1-9.52 2.08-14.48l-0.62-128.82v-0.02c-0.08-13.3-5.32-25.78-14.76-35.14-9.46-9.36-22.02-14.38-35.28-14.4-27.44 0.14-49.66 22.54-49.56 49.98 0 0.02 0.02 0.04 0.02 0.06l0.62 128.82c0.06 13.32 5.3 25.8 14.76 35.16 9.38 9.28 21.82 14.4 35.02 14.4h0.26c5.68-0.04 11.24-1 16.52-2.92a10.02 10.02 0 0 1 12.8 6.02c1.86 5.2-0.82 10.94-6.02 12.8a69.19 69.19 0 0 1-23.2 4.1h-0.36c-18.5 0-35.94-7.16-49.1-20.2-13.24-13.12-20.58-30.6-20.68-49.26l-0.62-128.76c0-0.02-0.02-0.04-0.02-0.08-0.18-38.48 30.98-69.94 69.46-70.12h0.36c18.5 0 35.92 7.16 49.08 20.2 13.26 13.12 20.6 30.6 20.7 49.24v0.02l0.62 128.82z" fill="#FFFFFF" p-id="977"></path><path d="M724.74 898.82a9.98 9.98 0 0 1-7.1 2.96c-2.54 0-5.08-0.96-7.04-2.9l-84.8-83.98a9.988 9.988 0 0 1-0.06-14.14 10.008 10.008 0 0 1 14.14-0.08l84.8 84a9.988 9.988 0 0 1 0.06 14.14z" fill="#FFFFFF" p-id="978"></path><path d="M442.42 559.36V942.8l-18.96 0.08V559.46zM464.38 559.26v383.42l-14.58 0.08V559.32zM503.8 559.06v383.44l-24.24 0.12V559.18z" fill="#FFFFFF" opacity=".2" p-id="979"></path><path d="M561.46 81.3v383.44l-18.96 0.1V81.4zM583.42 81.2v383.44l-14.58 0.06V81.26zM622.84 81v383.44l-24.24 0.12V81.12z" fill="#FFFFFF" opacity=".2" p-id="980"></path></svg>