<?xml version="1.0" standalone="no"?><!DOCTYPE svg PUBLIC "-//W3C//DTD SVG 1.1//EN" "http://www.w3.org/Graphics/SVG/1.1/DTD/svg11.dtd"><svg t="1538135108177" class="icon" style="" viewBox="0 0 1024 1024" version="1.1" xmlns="http://www.w3.org/2000/svg" p-id="2387" xmlns:xlink="http://www.w3.org/1999/xlink" width="64" height="64"><defs><style type="text/css"></style></defs><path d="M0 68.8C0 30.72 30.656 0 68.8 0h886.4C993.28 0 1024 30.656 1024 68.8v886.4C1024 993.28 993.344 1024 955.2 1024H68.8A68.672 68.672 0 0 1 0 955.2V68.8z m800 420.48V294.976l-61.824 61.824a270.912 270.912 0 0 0-323.264-76.352 272.128 272.128 0 0 0 90.752 518.656 271.36 271.36 0 0 0 278.08-182.016l-69.76-34.944a193.856 193.856 0 0 1-196.16 139.968 194.368 194.368 0 0 1-67.2-372.224 193.536 193.536 0 0 1 232.576 62.08L606.208 489.344H800z" fill="#DEA315" p-id="2388"></path></svg>